<svg xmlns="http://www.w3.org/2000/svg" xmlns:xlink="http://www.w3.org/1999/xlink" width="500" zoomAndPan="magnify" viewBox="0 0 375 374.999991" height="500" preserveAspectRatio="xMidYMid meet" version="1.2"><defs><clipPath id="a058897320"><path d="M 17.25 0 L 357.75 0 C 362.324219 0 366.710938 1.816406 369.949219 5.050781 C 373.183594 8.289062 375 12.675781 375 17.25 L 375 357.75 C 375 362.324219 373.183594 366.710938 369.949219 369.949219 C 366.710938 373.183594 362.324219 375 357.75 375 L 17.25 375 C 12.675781 375 8.289062 373.183594 5.050781 369.949219 C 1.816406 366.710938 0 362.324219 0 357.75 L 0 17.25 C 0 12.675781 1.816406 8.289062 5.050781 5.050781 C 8.289062 1.816406 12.675781 0 17.25 0 Z M 17.25 0 "/></clipPath></defs><g id="bc1a308b17"><rect x="0" width="375" y="0" height="374.999991" style="fill:#ffffff;fill-opacity:1;stroke:none;"/><rect x="0" width="375" y="0" height="374.999991" style="fill:#1877f2;fill-opacity:1;stroke:none;"/><g clip-rule="nonzero" clip-path="url(#a058897320)"><rect x="0" width="375" y="0" height="374.999991" style="fill:#1877f2;fill-opacity:1;stroke:none;"/></g><path style=" stroke:none;fill-rule:nonzero;fill:#ffffff;fill-opacity:1;" d="M 141.972656 167.539062 L 129.808594 167.539062 C 129.328125 167.539062 128.863281 167.628906 128.417969 167.8125 C 127.972656 168 127.578125 168.261719 127.238281 168.601562 C 126.894531 168.945312 126.632812 169.335938 126.449219 169.78125 C 126.265625 170.230469 126.171875 170.691406 126.171875 171.175781 L 126.171875 245.613281 C 126.171875 247.621094 127.800781 249.25 129.808594 249.25 L 203.164062 249.25 C 203.648438 249.25 204.109375 249.160156 204.558594 248.976562 C 205.003906 248.789062 205.394531 248.527344 205.738281 248.1875 C 206.078125 247.84375 206.339844 247.453125 206.527344 247.007812 C 206.710938 246.558594 206.800781 246.097656 206.800781 245.613281 L 206.800781 171.175781 C 206.800781 170.691406 206.710938 170.230469 206.527344 169.78125 C 206.339844 169.335938 206.078125 168.945312 205.738281 168.601562 C 205.394531 168.261719 205.003906 168 204.558594 167.8125 C 204.109375 167.628906 203.648438 167.539062 203.164062 167.539062 L 175.363281 167.539062 L 175.363281 148.414062 C 175.363281 146.40625 173.734375 144.777344 171.726562 144.777344 L 161.25 144.777344 C 159.242188 144.777344 157.613281 146.40625 157.613281 148.414062 L 157.613281 167.539062 L 129.808594 167.539062 Z M 175.363281 230.488281 L 175.363281 207.285156 L 157.613281 207.285156 L 157.613281 230.488281 L 175.363281 230.488281 Z M 157.613281 189.535156 L 175.363281 189.535156 L 175.363281 185.171875 L 157.613281 185.171875 L 157.613281 189.535156 Z M 248.191406 167.539062 L 236.027344 167.539062 C 235.546875 167.539062 235.082031 167.628906 234.636719 167.8125 C 234.191406 168 233.796875 168.261719 233.457031 168.601562 C 233.113281 168.945312 232.851562 169.335938 232.667969 169.78125 C 232.484375 170.230469 232.390625 170.691406 232.390625 171.175781 L 232.390625 245.613281 C 232.390625 247.621094 234.019531 249.25 236.027344 249.25 L 309.382812 249.25 C 309.867188 249.25 310.328125 249.160156 310.777344 248.976562 C 311.222656 248.789062 311.613281 248.527344 311.957031 248.1875 C 312.296875 247.84375 312.558594 247.453125 312.746094 247.007812 C 312.929688 246.558594 313.019531 246.097656 313.019531 245.613281 L 313.019531 171.175781 C 313.019531 170.691406 312.929688 170.230469 312.746094 169.78125 C 312.558594 169.335938 312.296875 168.945312 311.957031 168.601562 C 311.613281 168.261719 311.222656 168 310.777344 167.8125 C 310.328125 167.628906 309.867188 167.539062 309.382812 167.539062 L 281.582031 167.539062 L 281.582031 148.414062 C 281.582031 146.40625 279.953125 144.777344 277.945312 144.777344 L 267.46875 144.777344 C 265.460938 144.777344 263.832031 146.40625 263.832031 148.414062 L 263.832031 167.539062 L 236.027344 167.539062 Z M 281.582031 230.488281 L 281.582031 207.285156 L 263.832031 207.285156 L 263.832031 230.488281 L 281.582031 230.488281 Z M 263.832031 189.535156 L 281.582031 189.535156 L 281.582031 185.171875 L 263.832031 185.171875 L 263.832031 189.535156 Z "/></g></svg>